<svg width="124" height="126" viewBox="0 0 124 126" fill="none" xmlns="http://www.w3.org/2000/svg">
<g filter="url(#filter0_d_1_957)">
<path d="M64.8761 100.812L46.4914 82.4276C45.7103 81.6466 44.444 81.6466 43.6629 82.4276L35.1777 90.9129C34.3966 91.694 34.3966 92.9603 35.1777 93.7413L53.5624 112.126C54.3435 112.907 55.6098 112.907 56.3909 112.126L64.8761 103.641C65.6572 102.86 65.6572 101.593 64.8761 100.812Z" fill="#FFE3D0"/>
<path d="M67.9632 10V21" stroke="white" stroke-width="5" stroke-linecap="round"/>
<path d="M85.4632 17L77.4632 25" stroke="white" stroke-width="5" stroke-linecap="round"/>
<path d="M44.4632 34.5H55.4632" stroke="white" stroke-width="5" stroke-linecap="round"/>
<path d="M51.4632 17L59.4632 25" stroke="white" stroke-width="5" stroke-linecap="round"/>
<path fill-rule="evenodd" clip-rule="evenodd" d="M63.2119 52.9791L94.3246 84.0918L79.2492 99.1672C70.6577 107.759 56.7281 107.759 48.1365 99.1672C39.545 90.5757 39.545 76.646 48.1365 68.0545L63.2119 52.9791Z" fill="#FFE3D0"/>
<path d="M92.5569 39.1906C94.7048 37.0427 94.7048 33.5603 92.5569 31.4124C90.409 29.2645 86.9266 29.2645 84.7787 31.4124L56.4944 59.6967C54.3465 61.8446 54.3465 65.327 56.4944 67.4748C58.6423 69.6227 62.1247 69.6227 64.2726 67.4748L92.5569 39.1906Z" fill="#FFE3D0"/>
<path d="M82.6574 64.6464C84.8053 62.4985 84.8053 59.0161 82.6574 56.8682C80.5095 54.7203 77.0271 54.7203 74.8792 56.8682L64.2726 67.4748C62.1247 69.6227 62.1247 73.1051 64.2726 75.253C66.4205 77.4009 69.9029 77.4009 72.0508 75.253L82.6574 64.6464Z" fill="#FFE3D0"/>
<path d="M88.3142 74.5459C90.4621 72.398 90.4621 68.9156 88.3142 66.7677C86.1663 64.6199 82.6839 64.6199 80.536 66.7677L72.0507 75.253C69.9029 77.4009 69.9029 80.8833 72.0507 83.0312C74.1986 85.1791 77.681 85.1791 79.8289 83.0312L88.3142 74.5459Z" fill="#FFE3D0"/>
<path d="M93.9711 84.4455C96.1189 82.2976 96.1189 78.8152 93.9711 76.6673C91.8232 74.5194 88.3408 74.5194 86.1929 76.6673L79.8289 83.0312C77.681 85.1791 77.681 88.6615 79.8289 90.8094C81.9768 92.9573 85.4592 92.9573 87.6071 90.8094L93.9711 84.4455Z" fill="#FFE3D0"/>
<path fill-rule="evenodd" clip-rule="evenodd" d="M43.4032 78.5148C43.4032 78.5148 52.8826 62.9699 39.9382 53.2791C37.5622 51.4999 37.2497 49.3396 40.0906 47.7057C48.9193 42.6326 58.2374 54.9294 58.055 62.7264" fill="#FFE3D0"/>
<path d="M62.0477 107.884L39.4203 85.2561C38.6393 84.4751 37.3729 84.4751 36.5919 85.2561L28.1066 93.7414C27.3256 94.5225 27.3256 95.7888 28.1066 96.5698L50.734 119.197C51.5151 119.978 52.7814 119.978 53.5625 119.197L62.0477 110.712C62.8288 109.931 62.8288 108.665 62.0477 107.884Z" fill="#5295C7"/>
</g>
<defs>
<filter id="filter0_d_1_957" x="23.5208" y="5.5" width="76.0612" height="120.283" filterUnits="userSpaceOnUse" color-interpolation-filters="sRGB">
<feFlood flood-opacity="0" result="BackgroundImageFix"/>
<feColorMatrix in="SourceAlpha" type="matrix" values="0 0 0 0 0 0 0 0 0 0 0 0 0 0 0 0 0 0 127 0" result="hardAlpha"/>
<feOffset dy="2"/>
<feGaussianBlur stdDeviation="2"/>
<feColorMatrix type="matrix" values="0 0 0 0 0 0 0 0 0 0 0 0 0 0 0 0 0 0 0.101098 0"/>
<feBlend mode="normal" in2="BackgroundImageFix" result="effect1_dropShadow_1_957"/>
<feBlend mode="normal" in="SourceGraphic" in2="effect1_dropShadow_1_957" result="shape"/>
</filter>
</defs>
</svg>
