<svg width="159" height="113" viewBox="0 0 159 113" fill="none" xmlns="http://www.w3.org/2000/svg">
<g filter="url(#filter0_d_1_908)">
<path d="M125 6H6C4.89543 6 4 6.89543 4 8V89C4 90.1046 4.89543 91 6 91H125C126.105 91 127 90.1046 127 89V8C127 6.89543 126.105 6 125 6Z" fill="#CCECFF"/>
<path fill-rule="evenodd" clip-rule="evenodd" d="M10 14H121V83C121 84.1046 120.105 85 119 85H12C10.8954 85 10 84.1046 10 83V14Z" fill="white"/>
<path fill-rule="evenodd" clip-rule="evenodd" d="M6 2H125C126.105 2 127 2.89543 127 4V14H4V4C4 2.89543 4.89543 2 6 2Z" fill="#5295C7"/>
<path d="M12 10C13.1046 10 14 9.10457 14 8C14 6.89543 13.1046 6 12 6C10.8954 6 10 6.89543 10 8C10 9.10457 10.8954 10 12 10Z" fill="white"/>
<path d="M18 10C19.1046 10 20 9.10457 20 8C20 6.89543 19.1046 6 18 6C16.8954 6 16 6.89543 16 8C16 9.10457 16.8954 10 18 10Z" fill="white"/>
<path d="M24 10C25.1046 10 26 9.10457 26 8C26 6.89543 25.1046 6 24 6C22.8954 6 22 6.89543 22 8C22 9.10457 22.8954 10 24 10Z" fill="white"/>
<path d="M120 6H33C32.4477 6 32 6.44772 32 7V9C32 9.55228 32.4477 10 33 10H120C120.552 10 121 9.55228 121 9V7C121 6.44772 120.552 6 120 6Z" fill="white"/>
<path d="M114 24H81C79.8954 24 79 24.8954 79 26V49C79 50.1046 79.8954 51 81 51H114C115.105 51 116 50.1046 116 49V26C116 24.8954 115.105 24 114 24Z" fill="#E8E8E8"/>
<path d="M62 24H19C18.4477 24 18 24.4477 18 25V29C18 29.5523 18.4477 30 19 30H62C62.5523 30 63 29.5523 63 29V25C63 24.4477 62.5523 24 62 24Z" fill="#E8E8E8"/>
<path d="M62 35H19C18.4477 35 18 35.4477 18 36V40C18 40.5523 18.4477 41 19 41H62C62.5523 41 63 40.5523 63 40V36C63 35.4477 62.5523 35 62 35Z" fill="#4BD870"/>
<path d="M72 24H67C66.4477 24 66 24.4477 66 25V29C66 29.5523 66.4477 30 67 30H72C72.5523 30 73 29.5523 73 29V25C73 24.4477 72.5523 24 72 24Z" fill="#E8E8E8"/>
<path d="M72 35H67C66.4477 35 66 35.4477 66 36V40C66 40.5523 66.4477 41 67 41H72C72.5523 41 73 40.5523 73 40V36C73 35.4477 72.5523 35 72 35Z" fill="#4BD870"/>
<path d="M62 46H19C18.4477 46 18 46.4477 18 47V51C18 51.5523 18.4477 52 19 52H62C62.5523 52 63 51.5523 63 51V47C63 46.4477 62.5523 46 62 46Z" fill="#E8E8E8"/>
<path d="M62 57H19C18.4477 57 18 57.4477 18 58V62C18 62.5523 18.4477 63 19 63H62C62.5523 63 63 62.5523 63 62V58C63 57.4477 62.5523 57 62 57Z" fill="#F48F56"/>
<path d="M62 68H19C18.4477 68 18 68.4477 18 69V73C18 73.5523 18.4477 74 19 74H62C62.5523 74 63 73.5523 63 73V69C63 68.4477 62.5523 68 62 68Z" fill="#E8E8E8"/>
<path d="M72 46H67C66.4477 46 66 46.4477 66 47V51C66 51.5523 66.4477 52 67 52H72C72.5523 52 73 51.5523 73 51V47C73 46.4477 72.5523 46 72 46Z" fill="#E8E8E8"/>
<path d="M72 57H67C66.4477 57 66 57.4477 66 58V62C66 62.5523 66.4477 63 67 63H72C72.5523 63 73 62.5523 73 62V58C73 57.4477 72.5523 57 72 57Z" fill="#F48F56"/>
<path d="M72 68H67C66.4477 68 66 68.4477 66 69V73C66 73.5523 66.4477 74 67 74H72C72.5523 74 73 73.5523 73 73V69C73 68.4477 72.5523 68 72 68Z" fill="#E8E8E8"/>
<path d="M132 107C144.703 107 155 96.7025 155 84C155 71.2975 144.703 61 132 61C119.297 61 109 71.2975 109 84C109 96.7025 119.297 107 132 107Z" fill="#5295C7"/>
<path d="M132 100C140.837 100 148 92.8366 148 84C148 75.1634 140.837 68 132 68C123.163 68 116 75.1634 116 84C116 92.8366 123.163 100 132 100Z" fill="white"/>
<path d="M132 73V85.4755L137 92" stroke="#C5C5C5" stroke-width="3" stroke-linecap="round" stroke-linejoin="round"/>
</g>
<defs>
<filter id="filter0_d_1_908" x="0" y="0" width="159" height="113" filterUnits="userSpaceOnUse" color-interpolation-filters="sRGB">
<feFlood flood-opacity="0" result="BackgroundImageFix"/>
<feColorMatrix in="SourceAlpha" type="matrix" values="0 0 0 0 0 0 0 0 0 0 0 0 0 0 0 0 0 0 127 0" result="hardAlpha"/>
<feOffset dy="2"/>
<feGaussianBlur stdDeviation="2"/>
<feColorMatrix type="matrix" values="0 0 0 0 0 0 0 0 0 0 0 0 0 0 0 0 0 0 0.101098 0"/>
<feBlend mode="normal" in2="BackgroundImageFix" result="effect1_dropShadow_1_908"/>
<feBlend mode="normal" in="SourceGraphic" in2="effect1_dropShadow_1_908" result="shape"/>
</filter>
</defs>
</svg>
